<svg xmlns="http://www.w3.org/2000/svg" width="582.8183pt" height="225pt" viewBox="0 0 582.81829 225"><path d="M126.368 2.611v82.117h-19.861V51.625H78.62v33.103H58.668V2.61H78.62V33.9h27.886V2.61ZM190.314 84.728H175.89l-1.75-5.484c-2.187 1.82-5.16 3.367-8.916 4.641a36.04 36.04 0 0 1-11.65 1.91c-5.617 0-9.938-1.313-12.965-3.94-3.027-2.629-4.54-7.009-4.54-13.141v-4.16c0-3.43.62-6.277 1.859-8.54 1.24-2.263 3.082-4.07 5.526-5.419 2.444-1.35 5.453-2.299 9.026-2.846 3.576-.548 7.697-.823 12.366-.823h6.782V43.66c0-1.525-.128-2.795-.384-3.81-.254-1.017-.729-1.816-1.423-2.396-.693-.58-1.641-.98-2.845-1.198-1.203-.218-2.753-.327-4.65-.327-1.094 0-2.408.073-3.94.218a55.669 55.669 0 0 0-4.928.71c-1.75.325-3.538.706-5.362 1.142a35.388 35.388 0 0 0-5.143 1.632V26.297c1.53-.51 3.244-.984 5.141-1.421a95.45 95.45 0 0 1 5.798-1.15 86.077 86.077 0 0 1 5.741-.766 52.479 52.479 0 0 1 5.086-.273c4.886 0 8.97.492 12.252 1.478 3.281.984 5.906 2.406 7.875 4.266 1.969 1.86 3.373 4.14 4.211 6.84.839 2.698 1.258 5.798 1.258 9.3v40.157m-18.687-26.269h-7.231c-2.776 0-5.06.473-6.85 1.42-1.789.947-2.684 2.913-2.684 5.9v1.201c0 2.039.42 3.496 1.26 4.37.84.874 2.319 1.311 4.438 1.311 1.68 0 3.597-.291 5.751-.874 2.156-.583 3.928-1.493 5.316-2.731zM256.723 84.728H237.26V45.707c0-2.55-.347-4.407-1.041-5.573-.694-1.167-2.21-1.75-4.55-1.75-1.68 0-3.526.291-5.536.874-2.009.583-3.817 1.457-5.424 2.623v42.847H201.38V24.182h14.414l1.31 5.174a35.062 35.062 0 0 1 10.067-4.974c3.649-1.13 7.006-1.695 10.071-1.695 3.721 0 6.822.474 9.302 1.423 2.482.947 4.47 2.26 5.965 3.94 1.496 1.676 2.572 3.664 3.229 5.962.656 2.297.984 4.796.984 7.495zM288.02 0v44.79h5.577l13.45-20.608h21.432L309.67 51.99l19.9 32.738H306.5L293.05 60.06h-5.03v24.667h-19.5V3.282ZM360.2 86.151c-9.768 0-17.131-2.261-22.089-6.784-4.958-4.523-7.437-11.38-7.437-20.57v-8.755c0-8.827 2.48-15.593 7.437-20.298 4.958-4.705 12.32-7.057 22.09-7.057 9.769 0 17.132 2.352 22.088 7.057 4.958 4.705 7.437 11.471 7.437 20.298v8.754c0 9.191-2.479 16.048-7.437 20.571-4.956 4.523-12.32 6.784-22.089 6.784m0-48.693c-3.281 0-5.779.966-7.493 2.9-1.713 1.933-2.57 5.416-2.57 10.45v7.222c0 5.034.857 8.517 2.57 10.45 1.714 1.933 4.212 2.9 7.493 2.9 3.282 0 5.779-.967 7.492-2.9 1.714-1.933 2.57-5.416 2.57-10.45v-7.223c0-5.033-.856-8.516-2.57-10.45-1.713-1.933-4.21-2.9-7.492-2.9zM427.011 86.151c-9.769 0-17.132-2.261-22.09-6.784-4.957-4.523-7.436-11.38-7.436-20.57v-8.755c0-8.827 2.48-15.593 7.437-20.298 4.957-4.705 12.32-7.057 22.089-7.057 9.77 0 17.133 2.352 22.09 7.057 4.957 4.705 7.436 11.471 7.436 20.298v8.754c0 9.191-2.48 16.048-7.437 20.571-4.956 4.523-12.32 6.784-22.089 6.784m0-48.693c-3.281 0-5.78.966-7.493 2.9-1.713 1.933-2.57 5.416-2.57 10.45v7.222c0 5.034.857 8.517 2.57 10.45 1.714 1.933 4.212 2.9 7.493 2.9 3.281 0 5.779-.967 7.492-2.9 1.714-1.933 2.57-5.416 2.57-10.45v-7.223c0-5.033-.856-8.516-2.57-10.45-1.713-1.933-4.21-2.9-7.492-2.9zM486.264 0v44.79h5.578l13.45-20.608h21.432L507.917 51.99l19.9 32.738h-23.072l-13.45-24.667h-5.03v24.667h-19.5V3.282ZM71.622 195.893l-7.545 7.643-10.06-9.705c-3.79 3.061-7.928 5.266-12.411 6.615-4.483 1.349-9.24 2.023-14.27 2.023-4.519 0-8.474-.583-11.864-1.749-3.39-1.167-6.232-2.752-8.53-4.757-2.295-2.004-4.027-4.373-5.193-7.106C.583 186.124 0 183.227 0 180.166c0-2.472.31-4.707.93-6.706.619-2 1.603-3.872 2.95-5.618 1.35-1.745 3.1-3.435 5.25-5.07 2.151-1.636 4.721-3.363 7.71-5.18-2.916-3.071-5.25-6.104-7-9.1-1.748-2.998-2.622-6.47-2.622-10.417 0-2.479.474-4.829 1.421-7.051.948-2.223 2.333-4.172 4.155-5.848 1.822-1.677 4.045-2.989 6.669-3.936 2.625-.948 5.65-1.422 9.077-1.422 3.718 0 6.962.474 9.732 1.423 2.77.949 5.066 2.245 6.888 3.888a15.113 15.113 0 0 1 4.046 5.856c.875 2.263 1.313 4.708 1.313 7.335 0 2.336-.438 4.435-1.313 6.297-.875 1.86-2.114 3.594-3.718 5.2-1.604 1.606-3.48 3.12-5.63 4.544-2.151 1.423-4.502 2.9-7.054 4.433l21.214 20.292c1.676-2.478 3.134-5.212 4.373-8.2 1.24-2.99 2.37-6.344 3.39-10.061l9.077 3.045c-1.167 4.592-2.553 8.73-4.157 12.412-1.603 3.68-3.426 6.905-5.467 9.675l10.388 9.936M11.59 179.63c0 3.792 1.44 6.909 4.318 9.351 2.88 2.443 6.726 3.665 11.538 3.665 4.009 0 7.599-.51 10.77-1.53 3.171-1.022 6.033-2.48 8.584-4.375L23.73 164.205a102.247 102.247 0 0 0-5.359 3.664c-1.53 1.13-2.788 2.297-3.772 3.5-.984 1.204-1.73 2.462-2.241 3.775-.51 1.312-.766 2.807-.766 4.485m28.321-41.096c0-2.702-.82-4.949-2.46-6.739-1.64-1.79-4.429-2.686-8.365-2.686-1.458 0-2.88.201-4.265.604-1.385.402-2.588.986-3.609 1.754-1.02.766-1.84 1.752-2.46 2.958-.619 1.206-.928 2.612-.928 4.22 0 2.776.838 5.26 2.514 7.453a49.266 49.266 0 0 0 5.576 6.137c2.625-1.534 4.83-2.886 6.616-4.055 1.786-1.169 3.226-2.265 4.32-3.288 1.093-1.024 1.876-2.028 2.35-3.014.474-.986.711-2.101.711-3.344zM165.224 130.923c-2.187-.745-5.104-1.323-8.75-1.733a95.692 95.692 0 0 0-10.714-.616c-5.759 0-10.315.657-13.669 1.97-3.353 1.312-5.905 3.08-7.655 5.303-1.748 2.224-2.878 4.83-3.388 7.819-.51 2.989-.766 6.123-.766 9.403v13.889c0 3.427.2 6.672.6 9.734.402 3.061 1.44 5.74 3.117 8.037 1.678 2.296 4.21 4.1 7.6 5.413 3.39 1.312 8.075 1.969 14.052 1.969 2.916 0 6.178-.167 9.786-.5 3.608-.333 7.271-1.092 10.989-2.277v9.718a33.768 33.768 0 0 1-5.248 1.653c-1.895.44-3.79.79-5.686 1.046a74.766 74.766 0 0 1-5.578.552c-1.822.11-3.462.166-4.92.166-6.706 0-12.374-.62-17.004-1.857-4.628-1.24-8.382-3.243-11.262-6.012-2.879-2.769-4.956-6.375-6.232-10.819-1.276-4.443-1.914-9.907-1.914-16.39v-12.897c0-6.848.766-12.585 2.296-17.21 1.53-4.626 3.809-8.342 6.834-11.147 3.026-2.806 6.798-4.81 11.318-6.01 4.52-1.203 9.804-1.804 15.855-1.804 3.718 0 7.362.204 10.934.61 3.573.408 6.708 1.13 9.405 2.166zM229.192 174.903c0 8.825-2.315 15.625-6.944 20.401s-11.244 7.165-19.847 7.165c-8.528 0-15.107-2.389-19.737-7.165-4.63-4.777-6.944-11.578-6.944-20.402v-7.657c0-8.824 2.315-15.624 6.944-20.4 4.63-4.777 11.209-7.165 19.737-7.165 8.603 0 15.218 2.388 19.847 7.164 4.63 4.777 6.944 11.577 6.944 20.401v7.658m-11.372-7.66c0-6.493-1.367-11.127-4.102-13.9-2.733-2.773-6.505-4.16-11.317-4.16-4.738 0-8.475 1.387-11.209 4.16-2.733 2.773-4.1 7.407-4.1 13.9v7.662c0 6.494 1.367 11.127 4.1 13.9 2.734 2.773 6.47 4.16 11.21 4.16 4.811 0 8.583-1.387 11.316-4.16 2.735-2.773 4.102-7.406 4.102-13.9zM325.526 201.4h-11.262v-41.3c0-3.569-.584-6.21-1.75-7.922-1.167-1.711-3.39-2.567-6.671-2.567-4.665 0-9.95 1.858-15.854 5.576.072.363.108.691.108.982v45.232h-11.262v-41.3c0-3.57-.584-6.21-1.75-7.923-1.166-1.711-3.39-2.567-6.67-2.567-2.333 0-4.776.455-7.327 1.366s-5.357 2.314-8.42 4.21V201.4h-11.262v-60.333h10.061l1.093 4.732a43.999 43.999 0 0 1 8.583-4.318c3.025-1.13 5.96-1.695 8.803-1.695 4.01 0 7.29.583 9.84 1.75 2.552 1.166 4.52 2.878 5.905 5.137 3.354-2.187 6.817-3.881 10.388-5.084 3.572-1.202 6.67-1.803 9.296-1.803 6.414 0 11.043 1.474 13.886 4.424 2.844 2.95 4.265 7.264 4.265 12.946zM341.38 225v-83.932h10.061l1.093 4.842c2.77-1.676 5.922-3.116 9.457-4.318 3.536-1.204 7.273-1.805 11.21-1.805 3.644 0 6.779.582 9.403 1.746 2.625 1.165 4.794 2.73 6.507 4.696 1.713 1.965 2.988 4.259 3.826 6.88.839 2.621 1.258 5.387 1.258 8.298v15.944c0 8.663-2.187 15.033-6.56 19.11-4.374 4.076-10.862 6.114-19.464 6.114-.947 0-2.096-.055-3.445-.165a43.057 43.057 0 0 1-4.155-.547 77.95 77.95 0 0 1-4.211-.874c-1.385-.328-2.624-.711-3.717-1.148V225H341.38m11.263-34.551c2.186.802 4.647 1.422 7.381 1.86 2.734.437 5.158.656 7.271.656 3.5 0 6.27-.473 8.311-1.42 2.041-.947 3.59-2.22 4.647-3.823 1.058-1.601 1.75-3.403 2.077-5.404.328-2.002.492-4.059.492-6.17v-11.357c0-2.403-.164-4.55-.492-6.444-.327-1.893-.946-3.477-1.859-4.75-.91-1.274-2.15-2.257-3.717-2.949-1.567-.691-3.59-1.037-6.068-1.037-2.843 0-5.905.546-9.185 1.64-3.28 1.093-6.233 2.442-8.858 4.046zM451.82 201.4h-9.73l-1.095-4.945c-1.02.583-2.332 1.24-3.936 1.97a47.123 47.123 0 0 1-5.14 1.966 53.925 53.925 0 0 1-5.686 1.475c-1.968.402-3.826.603-5.575.603-5.905 0-10.207-1.42-12.904-4.262-2.698-2.84-4.046-7.32-4.046-13.44V182.8c0-3.57.638-6.519 1.914-8.85 1.275-2.33 3.098-4.17 5.467-5.517 2.37-1.348 5.249-2.277 8.638-2.786 3.39-.511 7.2-.766 11.428-.766h9.403v-3.184c0-2.268-.146-4.188-.437-5.761-.291-1.573-.875-2.872-1.75-3.896-.875-1.025-2.132-1.774-3.773-2.25-1.64-.475-3.771-.713-6.395-.713-2.406 0-5.195.294-8.366.882a60.489 60.489 0 0 0-9.13 2.428v-9.397c3.28-1.177 6.542-2.023 9.786-2.538a60.98 60.98 0 0 1 9.569-.772c4.665 0 8.437.601 11.315 1.805 2.88 1.204 5.085 2.809 6.616 4.815 1.532 2.007 2.552 4.323 3.062 6.95.51 2.626.766 5.398.766 8.317v39.834m-11.263-27.902-9.293.031c-3.208 0-5.851.164-7.929.492-2.078.327-3.718.873-4.92 1.637a6.299 6.299 0 0 0-2.57 3.167c-.51 1.346-.766 3.038-.766 5.076v1.528c0 2.91.62 4.912 1.859 6.005 1.24 1.091 3.098 1.637 5.578 1.637.947 0 2.205-.11 3.772-.327a45.322 45.322 0 0 0 4.92-.985 63.089 63.089 0 0 0 5.084-1.532c1.677-.582 3.098-1.239 4.265-1.968zM517.21 201.4h-11.262v-40.754c0-3.57-.53-6.3-1.587-8.194-1.057-1.894-3.444-2.841-7.161-2.841-2.698 0-5.686.455-8.967 1.366-3.28.911-6.451 2.314-9.513 4.21V201.4h-11.263v-60.333h10.061l1.093 4.732c3.061-1.75 6.414-3.19 10.06-4.318 3.645-1.13 6.998-1.695 10.059-1.695 6.78 0 11.554 1.51 14.324 4.533 2.77 3.022 4.156 7.301 4.156 12.837zM582.818 141.068l-31.164 83.612h-11.262l8.53-23.386-22.964-60.226h12.246l13.123 37.816c.51 1.385 1.092 3.17 1.749 5.356.656 2.186 1.203 4.554 1.64 7.105h.11c.437-2.26.965-4.573 1.585-6.941.62-2.368 1.185-4.208 1.695-5.52l13.34-37.816z" style="fill:#3e3a39;stroke-width:109.347"/></svg>